<?xml version="1.0" encoding="utf-8"?>
<!-- Generator: Adobe Illustrator 19.0.0, SVG Export Plug-In . SVG Version: 6.00 Build 0)  -->
<svg version="1.1" id="Layer_1" xmlns="http://www.w3.org/2000/svg" xmlns:xlink="http://www.w3.org/1999/xlink" x="0px" y="0px"
	 viewBox="669.7 88.1 391.5 44.8" style="enable-background:new 669.7 88.1 391.5 44.8;" xml:space="preserve">
<style type="text/css">
	.st0{fill:#010202;}
</style>
<g>
	<path class="st0" d="M669.7,132.5V88.5h7.5c2.2,0,3.7,0.3,4.6,0.9c1.1,0.8,1.6,2.2,1.6,4.2v11.2c0,1.7-0.3,2.9-1,3.6
		c-0.7,0.7-1.8,1.1-3.4,1.2v0.1c3,0.1,4.6,1.5,4.6,4.1v13.8c0,2-0.6,3.4-1.7,4.2c-0.9,0.6-2.5,0.9-4.7,0.9L669.7,132.5L669.7,132.5z
		 M673.8,107.9h2.7c2,0,3-1.1,3-3.2v-9.9c0-2-1.1-3-3.4-3h-2.3L673.8,107.9L673.8,107.9z M673.8,129.1h2.4c2.3,0,3.4-1,3.4-3V114
		c0-1.8-1.1-2.7-3.2-2.7h-2.7C673.8,111.4,673.8,129.1,673.8,129.1z"/>
	<path class="st0" d="M708.9,125.5V95.6c0-5,2.4-7.4,7.1-7.4c4.7,0,7.1,2.5,7.1,7.4v29.9c0,5-2.4,7.4-7.1,7.4
		C711.3,132.9,708.9,130.4,708.9,125.5z M713,95.7v29.7c0,2.8,1,4.1,3,4.1c2,0,3.1-1.4,3.1-4.1V95.7c0-2.8-1-4.1-3.1-4.1
		C714,91.5,713,92.9,713,95.7z"/>
	<path class="st0" d="M748.3,132.5V88.5h7.5c2.2,0,3.7,0.3,4.6,0.9c1.1,0.8,1.6,2.2,1.6,4.2v11.2c0,1.7-0.3,2.9-1,3.6
		c-0.7,0.7-1.8,1.1-3.4,1.2v0.1c3,0.1,4.6,1.5,4.6,4.1v13.8c0,2-0.6,3.4-1.7,4.2c-0.9,0.6-2.5,0.9-4.7,0.9L748.3,132.5L748.3,132.5z
		 M752.3,107.9h2.7c2,0,3-1.1,3-3.2v-9.9c0-2-1.1-3-3.4-3h-2.3L752.3,107.9L752.3,107.9z M752.3,129.1h2.4c2.3,0,3.4-1,3.4-3V114
		c0-1.8-1.1-2.7-3.2-2.7h-2.7L752.3,129.1L752.3,129.1z"/>
	<path class="st0" d="M787.5,132.5V88.5h7.5c2.2,0,3.7,0.3,4.6,0.9c1.1,0.8,1.6,2.2,1.6,4.2v11.2c0,1.7-0.3,2.9-1,3.6
		c-0.7,0.7-1.8,1.1-3.4,1.2v0.1c3.1,0.1,4.6,1.5,4.6,4.1v13.8c0,2-0.6,3.4-1.7,4.2c-0.9,0.6-2.5,0.9-4.7,0.9L787.5,132.5
		L787.5,132.5z M791.5,107.9h2.7c2,0,3-1.1,3-3.2v-9.9c0-2-1.1-3-3.4-3h-2.3L791.5,107.9L791.5,107.9z M791.5,129.1h2.4
		c2.3,0,3.4-1,3.4-3V114c0-1.8-1.1-2.7-3.2-2.7h-2.7L791.5,129.1L791.5,129.1z"/>
	<path class="st0" d="M826.7,132.5V88.5h4v44.1L826.7,132.5L826.7,132.5z"/>
	<path class="st0" d="M883.3,132.5V88.5h7.5c2.2,0,3.7,0.3,4.6,0.9c1.1,0.8,1.6,2.2,1.6,4.2v11.2c0,1.7-0.3,2.9-1,3.6
		c-0.7,0.7-1.8,1.1-3.4,1.2v0.1c3.1,0.1,4.6,1.5,4.6,4.1v13.8c0,2-0.6,3.4-1.7,4.2c-0.9,0.6-2.5,0.9-4.7,0.9L883.3,132.5
		L883.3,132.5z M887.3,107.9h2.7c2,0,3-1.1,3-3.2v-9.9c0-2-1.1-3-3.4-3h-2.3L887.3,107.9L887.3,107.9z M887.3,129.1h2.4
		c2.3,0,3.4-1,3.4-3V114c0-1.8-1.1-2.7-3.2-2.7h-2.7L887.3,129.1L887.3,129.1z"/>
	<path class="st0" d="M932.4,132.5V114c0-1.8-1.1-2.7-3.2-2.7h-2.7v21.2h-4V88.5h7.5c2.2,0,3.7,0.3,4.6,0.9c1.1,0.8,1.6,2.2,1.6,4.2
		v11.2c0,1.7-0.3,2.9-1,3.6c-0.7,0.7-1.8,1.1-3.4,1.2v0.1c3.1,0.2,4.6,1.6,4.6,4.1v18.9L932.4,132.5L932.4,132.5z M926.5,107.9h2.7
		c2,0,3-1.1,3-3.2v-9.9c0-2-1.1-3-3.4-3h-2.3L926.5,107.9L926.5,107.9z"/>
	<path class="st0" d="M961.7,125.5V95.6c0-5,2.4-7.4,7.1-7.4c4.7,0,7.1,2.5,7.1,7.4v29.9c0,5-2.4,7.4-7.1,7.4
		C964,132.9,961.7,130.4,961.7,125.5z M965.7,95.7v29.7c0,2.8,1,4.1,3.1,4.1c2,0,3.1-1.4,3.1-4.1V95.7c0-2.8-1-4.1-3.1-4.1
		C966.7,91.5,965.7,92.9,965.7,95.7z"/>
	<path class="st0" d="M1017.4,127.9l3.1-39.4h3.8l-4.5,44.1h-5.2l-3.1-39.2h-0.1l-3.1,39.2h-5.2l-4.5-44.1h3.8l3.3,39.4h0.1
		l3.1-39.4h5l3.4,39.4L1017.4,127.9L1017.4,127.9z"/>
	<path class="st0" d="M1057.7,88.5h3.5v44.1h-5.8l-5.1-39.2v39.2h-3.5V88.5h5.9l5,37.7V88.5z"/>
</g>
</svg>
