<svg xmlns="http://www.w3.org/2000/svg" viewBox="0 0 748.3 97.07">
    <title>Asset 5</title>
    <g id="Layer_2" data-name="Layer 2">
        <g id="Layer_1-2" data-name="Layer 1">
            <polygon class="cls-1" fill="#ec008c" points="359.3 95.08 359.3 0 423.27 0 423.27 5.42 364.67 5.42 364.67 42.97 419.79 42.97 419.79 48.39 364.67 48.39 364.67 89.67 423.79 89.67 423.79 95.08 359.3 95.08"/>
            <path
            class="cls-1" fill="#ec008c"
            d="M544.45,95.08c-11.37,0-20.19-3.14-26.2-9.33S509.19,70,509.19,57.26V0h5.37V57.26c0,10.7,2.45,18.9,7.28,24.37s12.39,8.17,22.61,8.17,17.82-2.75,22.6-8.17,7.28-13.67,7.28-24.37V0h5.37V57.26c0,12.72-3.05,22.31-9.06,28.49S555.82,95.08,544.45,95.08Z"/>
            <polygon class="cls-1" fill="#ec008c" points="620.02 95.08 620.02 5.42 586.98 5.42 586.98 0 658.57 0 658.57 5.42 625.39 5.42 625.39 95.08 620.02 95.08"/>
            <polygon class="cls-1" fill="#ec008c" points="704.32 95.08 704.32 55.24 665.85 0.05 672.53 0.05 707.01 49.61 741.75 0.05 748.3 0.05 709.7 55.24 709.7 95.08 704.32 95.08"/>
            <polygon class="cls-1" fill="#ec008c" points="506.72 95.08 495.32 66.62 493.2 61.26 472.42 7.59 451.69 59.32 475.26 59.32 475.26 64.8 449.51 64.8 437.25 95.08 431.36 95.08 469.81 0.05 475.08 0.05 512.61 95.08 506.72 95.08"/>
            <path
            class="cls-1" fill="#ec008c"
            d="M324.4,89.62l1.86-.22a33.74,33.74,0,0,0,5.18-1,22.76,22.76,0,0,0,7.91-3.88A18.45,18.45,0,0,0,344.56,78a20.83,20.83,0,0,0,1.93-9.26,19.76,19.76,0,0,0-2.09-9.51A18.17,18.17,0,0,0,338.89,53,23.65,23.65,0,0,0,331,49.51a39.15,39.15,0,0,0-9.28-1.12h-14.5l-2.31-5.54h16.79a30.25,30.25,0,0,0,8.44-1.16,20.82,20.82,0,0,0,6.94-3.5,17.53,17.53,0,0,0,4.78-5.8,17.29,17.29,0,0,0,1.78-8,19.86,19.86,0,0,0-1.67-8.5,16.3,16.3,0,0,0-4.58-5.82,19.54,19.54,0,0,0-6.92-3.49,31.72,31.72,0,0,0-8.77-1.17H289.25L287,0h34.65a36.54,36.54,0,0,1,10.52,1.48,25.18,25.18,0,0,1,8.74,4.58,21.8,21.8,0,0,1,5.93,7.67A25,25,0,0,1,349,24.43a22.66,22.66,0,0,1-1.58,8.39,23,23,0,0,1-4.32,7,21.81,21.81,0,0,1-6.53,4.89q-.74.36-1.5.66c.74.22,1.46.48,2.18.76a22.58,22.58,0,0,1,12.71,12.38,25.56,25.56,0,0,1,1.92,10.06,26.45,26.45,0,0,1-2.4,11.53,23.09,23.09,0,0,1-6.66,8.33,30,30,0,0,1-10.08,5,40.68,40.68,0,0,1-5.11,1.1l-1.1.17Z"/>
            <polygon class="cls-2" fill="#231f20" points="0 95.04 0 0 5.38 0 5.38 42.85 47.21 42.85 47.21 48.34 5.38 48.34 5.38 95.04 0 95.04"/>
            <rect class="cls-2" fill="#231f20" x="70" width="5.38" height="95.04"/>
            <path
            class="cls-2" fill="#231f20"
            d="M123.5,97.07c-11.37,0-20.19-3.14-26.21-9.34S88.24,72,88.24,59.25V0h5.38V59.25c0,10.7,2.44,18.9,7.27,24.36s12.39,8.17,22.61,8.17,17.82-2.75,22.6-8.17,7.28-13.67,7.28-24.36V0h5.37V59.25c0,12.72-3.05,22.3-9.06,28.48S134.86,97.07,123.5,97.07Z"/>
            <path
            class="cls-2" fill="#231f20"
            d="M167.17,95V0h33.64a49.28,49.28,0,0,1,14.26,2.19A33.51,33.51,0,0,1,228.26,9.9a40.18,40.18,0,0,1,9.5,14.65c2.42,6.08,3.64,13.81,3.64,23,0,8.41-1.25,15.71-3.71,21.71a40.36,40.36,0,0,1-10,14.78,39.93,39.93,0,0,1-14.29,8.35A51.87,51.87,0,0,1,196.82,95Zm30.28-5.5A43.49,43.49,0,0,0,212.38,87a33.78,33.78,0,0,0,12.28-7.69,36.31,36.31,0,0,0,8.31-13A52.47,52.47,0,0,0,236,47.45c0-8.39-1.05-15.38-3.13-20.78a34.12,34.12,0,0,0-8.16-12.84,27.85,27.85,0,0,0-11.36-6.57,47.1,47.1,0,0,0-13.22-1.89H172.55V89.54Z"/>
            <polygon class="cls-2" fill="#231f20" points="310.29 95.08 298.88 66.62 295.99 59.32 296.01 59.32 275.99 7.58 255.26 59.32 278.83 59.32 278.83 64.8 253.08 64.8 240.82 95.08 234.92 95.08 273.37 0.05 278.65 0.05 316.18 95.08 310.29 95.08"/>
        </g>
    </g>
</svg>
